<svg width="32" height="32" viewBox="0 0 32 32" fill="none" xmlns="http://www.w3.org/2000/svg">
<path d="M22.9641 23.3928C22.9641 23.5539 22.9002 23.7083 22.7863 23.8222C22.6724 23.936 22.518 24 22.357 24H14.4642C14.3032 24 14.1488 23.936 14.0349 23.8222C13.921 23.7083 13.8571 23.5539 13.8571 23.3928C13.8571 23.2318 13.921 23.0774 14.0349 22.9635C14.1488 22.8497 14.3032 22.7857 14.4642 22.7857H22.357C22.518 22.7857 22.6724 22.8497 22.7863 22.9635C22.9002 23.0774 22.9641 23.2318 22.9641 23.3928ZM22.9641 17.9286V20.3572C22.9641 20.6792 22.8362 20.9881 22.6085 21.2158C22.3808 21.4435 22.0719 21.5714 21.7499 21.5714H14.6243C14.3985 21.5721 14.1771 21.5096 13.985 21.3909C13.7929 21.2722 13.6379 21.1021 13.5376 20.8998L9.12748 12.0963C9.04363 11.9274 9 11.7415 9 11.5529C9 11.3644 9.04363 11.1784 9.12748 11.0095L10.8062 7.67027C10.9487 7.38592 11.1971 7.16882 11.4979 7.06565C11.7988 6.96247 12.1281 6.98146 12.4151 7.11854L14.9719 8.19772L15.0076 8.21442C15.2955 8.35852 15.5143 8.61101 15.6161 8.91641C15.7178 9.22181 15.6941 9.55512 15.5502 9.84306C15.5479 9.84885 15.5451 9.85443 15.5419 9.85976L14.4642 11.8572L16.8761 16.7143H21.7499C22.0719 16.7143 22.3808 16.8423 22.6085 17.07C22.8362 17.2977 22.9641 17.6066 22.9641 17.9286ZM21.7499 17.9286H16.8753C16.6496 17.9294 16.4282 17.8668 16.2362 17.7481C16.0443 17.6294 15.8894 17.4592 15.7893 17.257L13.3767 12.3999C13.293 12.2313 13.2495 12.0458 13.2495 11.8576C13.2495 11.6695 13.293 11.4839 13.3767 11.3154L13.3858 11.2987L14.4642 9.30119L11.9271 8.23036C11.915 8.22566 11.9031 8.22034 11.8915 8.21442L10.2143 11.5537L14.6236 20.3572H21.7499V17.9286Z" fill="#997AED"/>
</svg>
