<svg width="40" height="32" viewBox="0 0 40 32" fill="none" xmlns="http://www.w3.org/2000/svg">
<path d="M15.3102 7C15.8738 7 16.4143 7.22388 16.8128 7.6224C17.2114 8.02091 17.4352 8.56141 17.4352 9.125C17.4352 9.68859 17.2114 10.2291 16.8128 10.6276C16.4143 11.0261 15.8738 11.25 15.3102 11.25C14.7467 11.25 14.2062 11.0261 13.8076 10.6276C13.4091 10.2291 13.1852 9.68859 13.1852 9.125C13.1852 8.56141 13.4091 8.02091 13.8076 7.6224C14.2062 7.22388 14.7467 7 15.3102 7ZM12.9196 22.9375V20.2812H12.3286C11.9667 20.2812 11.711 19.926 11.8239 19.5807L12.8565 16.4795L11.9069 17.7346C11.5516 18.2027 10.8843 18.2924 10.4194 17.9404C9.95458 17.5885 9.86161 16.9211 10.2136 16.4529L12.1692 13.873C12.913 12.8902 14.0784 12.3125 15.3102 12.3125C16.5421 12.3125 17.7075 12.8902 18.4513 13.873L20.4069 16.4529C20.7622 16.9211 20.6692 17.5885 20.2011 17.9404C19.7329 18.2924 19.0655 18.2027 18.7136 17.7346L17.764 16.4795L18.7966 19.5807C18.9128 19.926 18.6538 20.2812 18.2919 20.2812H17.7009V22.9375C17.7009 23.5252 17.2261 24 16.6384 24C16.0507 24 15.5759 23.5252 15.5759 22.9375V20.2812H15.0446V22.9375C15.0446 23.5252 14.5698 24 13.9821 24C13.3944 24 12.9196 23.5252 12.9196 22.9375ZM25.9352 7C26.4988 7 27.0393 7.22388 27.4378 7.6224C27.8364 8.02091 28.0602 8.56141 28.0602 9.125C28.0602 9.68859 27.8364 10.2291 27.4378 10.6276C27.0393 11.0261 26.4988 11.25 25.9352 11.25C25.3717 11.25 24.8312 11.0261 24.4326 10.6276C24.0341 10.2291 23.8102 9.68859 23.8102 9.125C23.8102 8.56141 24.0341 8.02091 24.4326 7.6224C24.8312 7.22388 25.3717 7 25.9352 7ZM25.6696 19.75V22.9375C25.6696 23.5252 25.1948 24 24.6071 24C24.0194 24 23.5446 23.5252 23.5446 22.9375V16.9775L23.1163 17.6582C22.8042 18.1562 22.1468 18.3023 21.652 17.9902C21.1573 17.6781 21.0079 17.0207 21.32 16.526L23.0366 13.8C23.621 12.8736 24.6403 12.3092 25.7327 12.3092H26.1411C27.2368 12.3092 28.2561 12.8703 28.8372 13.8L30.5538 16.5293C30.8659 17.0273 30.7165 17.6814 30.2218 17.9936C29.727 18.3057 29.0696 18.1562 28.7575 17.6615L28.3259 16.9775V22.9375C28.3259 23.5252 27.8511 24 27.2634 24C26.6757 24 26.2009 23.5252 26.2009 22.9375V19.75H25.6696Z" fill="#997AED"/>
</svg>
